<mxfile host="app.diagrams.net" modified="2023-06-22T07:32:43.990Z" agent="Mozilla/5.0 (Windows NT 10.0; Win64; x64) AppleWebKit/537.36 (KHTML, like Gecko) Chrome/114.0.0.0 Safari/537.36" etag="-2FrgEbtIEcjkrSMQImN" version="21.5.0" type="github">
  <diagram name="Page-1" id="_x6adQR6rWWaABISxGhh">
    <mxGraphModel dx="1050" dy="485" grid="1" gridSize="10" guides="1" tooltips="1" connect="1" arrows="1" fold="1" page="1" pageScale="1" pageWidth="850" pageHeight="1100" math="0" shadow="0">
      <root>
        <mxCell id="0" />
        <mxCell id="1" parent="0" />
        <mxCell id="at0LkrNybj7bjaIiNBK2-5" style="edgeStyle=orthogonalEdgeStyle;rounded=0;orthogonalLoop=1;jettySize=auto;html=1;" edge="1" parent="1" source="at0LkrNybj7bjaIiNBK2-1" target="at0LkrNybj7bjaIiNBK2-3">
          <mxGeometry relative="1" as="geometry" />
        </mxCell>
        <mxCell id="at0LkrNybj7bjaIiNBK2-1" value="" style="rounded=1;whiteSpace=wrap;html=1;" vertex="1" parent="1">
          <mxGeometry x="230" y="100" width="120" height="60" as="geometry" />
        </mxCell>
        <mxCell id="at0LkrNybj7bjaIiNBK2-6" style="edgeStyle=orthogonalEdgeStyle;rounded=0;orthogonalLoop=1;jettySize=auto;html=1;entryX=0.5;entryY=0;entryDx=0;entryDy=0;" edge="1" parent="1" source="at0LkrNybj7bjaIiNBK2-2" target="at0LkrNybj7bjaIiNBK2-4">
          <mxGeometry relative="1" as="geometry" />
        </mxCell>
        <mxCell id="at0LkrNybj7bjaIiNBK2-2" value="" style="rounded=1;whiteSpace=wrap;html=1;" vertex="1" parent="1">
          <mxGeometry x="350" y="100" width="120" height="60" as="geometry" />
        </mxCell>
        <mxCell id="at0LkrNybj7bjaIiNBK2-3" value="" style="rounded=1;whiteSpace=wrap;html=1;" vertex="1" parent="1">
          <mxGeometry x="230" y="270" width="120" height="60" as="geometry" />
        </mxCell>
        <mxCell id="at0LkrNybj7bjaIiNBK2-4" value="" style="rounded=1;whiteSpace=wrap;html=1;" vertex="1" parent="1">
          <mxGeometry x="350" y="270" width="120" height="60" as="geometry" />
        </mxCell>
        <mxCell id="at0LkrNybj7bjaIiNBK2-12" style="edgeStyle=orthogonalEdgeStyle;rounded=0;orthogonalLoop=1;jettySize=auto;html=1;" edge="1" parent="1" source="at0LkrNybj7bjaIiNBK2-7">
          <mxGeometry relative="1" as="geometry">
            <mxPoint x="440" y="90" as="targetPoint" />
          </mxGeometry>
        </mxCell>
        <mxCell id="at0LkrNybj7bjaIiNBK2-13" style="edgeStyle=orthogonalEdgeStyle;rounded=0;orthogonalLoop=1;jettySize=auto;html=1;" edge="1" parent="1" source="at0LkrNybj7bjaIiNBK2-7" target="at0LkrNybj7bjaIiNBK2-1">
          <mxGeometry relative="1" as="geometry">
            <Array as="points">
              <mxPoint x="290" y="40" />
            </Array>
          </mxGeometry>
        </mxCell>
        <mxCell id="at0LkrNybj7bjaIiNBK2-7" value="" style="shape=mxgraph.signs.people.baby_1;html=1;pointerEvents=1;fillColor=#000000;strokeColor=none;verticalLabelPosition=bottom;verticalAlign=top;align=center;sketch=0;" vertex="1" parent="1">
          <mxGeometry x="325" width="50" height="70" as="geometry" />
        </mxCell>
        <mxCell id="at0LkrNybj7bjaIiNBK2-8" value="" style="shape=mxgraph.signs.healthcare.chapel;html=1;pointerEvents=1;fillColor=#000000;strokeColor=none;verticalLabelPosition=bottom;verticalAlign=top;align=center;sketch=0;" vertex="1" parent="1">
          <mxGeometry x="310" y="380" width="60" height="78" as="geometry" />
        </mxCell>
      </root>
    </mxGraphModel>
  </diagram>
</mxfile>
